Coordinates
version=1
nRows=26
nColumns=24
inDegrees=yes

Units are S.I. units (second, meters, Newtons, ...)
Angles are in degrees.

endheader
time	pelvis_tilt	pelvis_list	pelvis_rotation	pelvis_tx	pelvis_ty	pelvis_tz	hip_flexion_r	hip_adduction_r	hip_rotation_r	knee_angle_r	ankle_angle_r	subtalar_angle_r	mtp_angle_r	hip_flexion_l	hip_adduction_l	hip_rotation_l	knee_angle_l	ankle_angle_l	subtalar_angle_l	mtp_angle_l	lumbar_extension	lumbar_bending	lumbar_rotation
      2.28000000	     92.53672605	     16.90511248	    -93.43254132	      0.35284411	      0.29158812	      1.01702548	     -2.87932162	    -10.58618296	     -2.29949166	    -32.53499972	    -43.35433836	     -1.74545602	    -25.17324631	    -12.30246099	    -17.17684516	     -9.69526892	    -60.72608776	    -23.13625606	     -0.14557499	     73.45799169	      0.00000000	      0.00000000	      0.00000000
      2.29000000	     92.48844305	     16.82088026	    -93.33277192	      0.35292965	      0.29112827	      1.01722406	     -3.05586485	    -10.55825880	     -2.24922901	    -32.03680538	    -43.06831208	     -1.74545602	    -25.17324631	    -12.40192797	    -17.27941831	     -9.64388083	    -60.74270678	    -23.14330502	     -0.14557499	     73.45799169	      0.00000000	      0.00000000	      0.00000000
      2.30000000	     92.45217212	     16.77364758	    -93.28812961	      0.35294117	      0.29079163	      1.01726166	     -3.15714586	    -10.56504921	     -2.14716492	    -31.57747297	    -42.80732807	     -1.74545602	    -25.17324631	    -12.46312424	    -17.33090501	     -9.64059261	    -60.77211643	    -23.14753011	     -0.14557499	     73.45799169	      0.00000000	      0.00000000	      0.00000000
      2.31000000	     92.43414165	     16.76120989	    -93.31665423	      0.35289041	      0.29093454	      1.01705195	     -3.16329586	    -10.60950377	     -1.99381923	    -31.16548223	    -42.57856234	     -1.74545602	    -25.17324631	    -12.47809315	    -17.32068519	     -9.69085460	    -60.81718545	    -23.14869618	     -0.14557499	     73.45799169	      0.00000000	      0.00000000	      0.00000000
      2.32000000	     92.44406528	     16.78164455	    -93.41088401	      0.35287594	      0.29139898	      1.01675782	     -3.07818610	    -10.68088700	     -1.80200021	    -30.80621484	    -42.38523901	     -1.74545602	    -25.17324631	    -12.44789630	    -17.25929080	     -9.78774418	    -60.87174468	    -23.14791123	     -0.14557499	     73.45799169	      0.00000000	      0.00000000	      0.00000000
      2.33000000	     92.48235585	     16.83524163	    -93.54112986	      0.35292037	      0.29171579	      1.01653438	     -2.92865723	    -10.76453955	     -1.59323200	    -30.50223738	    -42.22650478	     -1.74545602	    -25.17324631	    -12.38280637	    -17.17028595	     -9.91523159	    -60.92453598	    -23.14746464	     -0.14557499	     73.45799169	      0.00000000	      0.00000000	      0.00000000
      2.34000000	     92.53862089	     16.91614618	    -93.67247207	      0.35298465	      0.29172712	      1.01638767	     -2.75127093	    -10.84649446	     -1.39266866	    -30.25165922	    -42.09819520	     -1.74545602	    -25.17324631	    -12.29757438	    -17.07925437	    -10.05392996	    -60.96452955	    -23.14998528	     -0.14557499	     73.45799169	      0.00000000	      0.00000000	      0.00000000
      2.35000000	     92.59839404	     17.00824681	    -93.77920990	      0.35305625	      0.29162737	      1.01627991	     -2.57887246	    -10.91506246	     -1.22364152	    -30.04823857	    -41.99430965	     -1.74545602	    -25.17324631	    -12.20705543	    -17.00521488	    -10.18654507	    -60.98532708	    -23.15742069	     -0.14557499	     73.45799169	      0.00000000	      0.00000000	      0.00000000
      2.36000000	     92.64840940	     17.09204734	    -93.84933754	      0.35313053	      0.29159247	      1.01619862	     -2.43491758	    -10.96354527	     -1.10273675	    -29.88456901	    -41.90867707	     -1.74545602	    -25.17324631	    -12.12476437	    -16.95618016	    -10.30149771	    -60.98704617	    -23.17038475	     -0.14557499	     73.45799169	      0.00000000	      0.00000000	      0.00000000
      2.37000000	     92.68060102	     17.15284191	    -93.88281885	      0.35319246	      0.29162548	      1.01615340	     -2.33275349	    -10.99089019	     -1.03705533	    -29.75539266	    -41.83625833	     -1.74545602	    -25.17324631	    -12.06184987	    -16.93036171	    -10.39377369	    -60.97460950	    -23.18801070	     -0.14557499	     73.45799169	      0.00000000	      0.00000000	      0.00000000
      2.38000000	     92.69411623	     17.18412490	    -93.88750039	      0.35323203	      0.29166560	      1.01614556	     -2.27661755	    -10.99982420	     -1.02424246	    -29.65897584	    -41.77390348	     -1.74545602	    -25.17324631	    -12.02546686	    -16.92068854	    -10.46368346	    -60.95417015	    -23.20826371	     -0.14557499	     73.45799169	      0.00000000	      0.00000000	      0.00000000
      2.39000000	     92.69380805	     17.18692485	    -93.87431347	      0.35324805	      0.29168935	      1.01615693	     -2.26345698	    -10.99469895	     -1.05475086	    -29.59656741	    -41.72062677	     -1.74545602	    -25.17324631	    -12.01751851	    -16.91905066	    -10.51487315	    -60.93026810	    -23.22858675	     -0.14557499	     73.45799169	      0.00000000	      0.00000000	      0.00000000
      2.40000000	     92.68653735	     17.16698283	    -93.85327793	      0.35324577	      0.29170553	      1.01617832	     -2.28521992	    -10.98001298	     -1.11536510	    -29.57076092	    -41.67750269	     -1.74545602	    -25.17324631	    -12.03445769	    -16.91875928	    -10.55241833	    -60.90477097	    -23.24663976	     -0.14557499	     73.45799169	      0.00000000	      0.00000000	      0.00000000
      2.41000000	     92.67798964	     17.13172725	    -93.83147495	      0.35323332	      0.29172355	      1.01621780	     -2.33115880	    -10.95928314	     -1.19284358	    -29.58363353	    -41.64725773	     -1.74545602	    -25.17324631	    -12.06859158	    -16.91535965	    -10.58129667	    -60.87743673	    -23.26082718	     -0.14557499	     73.45799169	      0.00000000	      0.00000000	      0.00000000
      2.42000000	     92.67143897	     17.08865139	    -93.81265688	      0.35321292	      0.29174450	      1.01627267	     -2.39004678	    -10.93438976	     -1.27654792	    -29.63549617	    -41.63362017	     -1.74545602	    -25.17324631	    -12.11076266	    -16.90645340	    -10.60535004	    -60.84740477	    -23.27040998	     -0.14557499	     73.45799169	      0.00000000	      0.00000000	      0.00000000
      2.43000000	     92.66814692	     17.04471187	    -93.79779629	      0.35318412	      0.29176491	      1.01632744	     -2.45230340	    -10.90586014	     -1.35946908	    -29.72467731	    -41.64050262	     -1.74545602	    -25.17324631	    -12.15279579	    -16.89135463	    -10.62686001	    -60.81441290	    -23.27523818	     -0.14557499	     73.45799169	      0.00000000	      0.00000000	      0.00000000
      2.44000000	     92.66825364	     17.00575278	    -93.78623229	      0.35315061	      0.29178241	      1.01637465	     -2.51146700	    -10.87384637	     -1.43791559	    -29.84798369	    -41.67112991	     -1.74545602	    -25.17324631	    -12.18857838	    -16.87078172	    -10.64684292	    -60.77909149	    -23.27535208	     -0.14557499	     73.45799169	      0.00000000	      0.00000000	      0.00000000
      2.45000000	     92.67149906	     16.97589683	    -93.77696119	      0.35311609	      0.29179864	      1.01641758	     -2.56443339	    -10.83889180	     -1.51060108	    -30.00118461	    -41.72729310	     -1.74545602	    -25.17324631	    -12.21418252	    -16.84630629	    -10.66585110	    -60.74265679	    -23.27073513	     -0.14557499	     73.45799169	      0.00000000	      0.00000000	      0.00000000
      2.46000000	     92.67766381	     16.95719349	    -93.76962510	      0.35308160	      0.29181723	      1.01646032	     -2.61066202	    -10.80199802	     -1.57772909	    -30.17922534	    -41.80891441	     -1.74545602	    -25.17324631	    -12.22764292	    -16.81960431	    -10.68471226	    -60.70650812	    -23.26136885	     -0.14557499	     73.45799169	      0.00000000	      0.00000000	      0.00000000
      2.47000000	     92.68668255	     16.94972289	    -93.76482753	      0.35304947	      0.29183787	      1.01650108	     -2.65108950	    -10.76425387	     -1.64033348	    -30.37631626	    -41.91397682	     -1.74545602	    -25.17324631	    -12.22869466	    -16.79181586	    -10.70472940	    -60.67197880	    -23.24753869	     -0.14557499	     73.45799169	      0.00000000	      0.00000000	      0.00000000
      2.48000000	     92.69854592	     16.95208269	    -93.76361049	      0.35302456	      0.29185656	      1.01653477	     -2.68733057	    -10.72648220	     -1.69991807	    -30.58620713	    -42.03872100	     -1.74545602	    -25.17324631	    -12.21858196	    -16.76329976	    -10.72727288	    -60.64015557	    -23.23016530	     -0.14557499	     73.45799169	      0.00000000	      0.00000000	      0.00000000
      2.49000000	     92.71310515	     16.96208426	    -93.76650761	      0.35301020	      0.29187304	      1.01655626	     -2.72148924	    -10.68928801	     -1.75833526	    -30.80288272	    -42.17798590	     -1.74545602	    -25.17324631	    -12.19980645	    -16.73389140	    -10.75308118	    -60.61155682	    -23.21090443	     -0.14557499	     73.45799169	      0.00000000	      0.00000000	      0.00000000
      2.50000000	     92.72999381	     16.97736111	    -93.77279623	      0.35300445	      0.29189141	      1.01655966	     -2.75626375	    -10.65335364	     -1.81775432	    -31.02148825	    -42.32559898	     -1.74545602	    -25.17324631	    -12.17573788	    -16.70343440	    -10.78175303	    -60.58576724	    -23.19191046	     -0.14557499	     73.45799169	      0.00000000	      0.00000000	      0.00000000
      2.51000000	     92.74898142	     16.99558083	    -93.78025919	      0.35300281	      0.29191456	      1.01654680	     -2.79458008	    -10.61936952	     -1.88044795	    -31.23893136	    -42.47478109	     -1.74545602	    -25.17324631	    -12.15021763	    -16.67217247	    -10.81176340	    -60.56140863	    -23.17534324	     -0.14557499	     73.45799169	      0.00000000	      0.00000000	      0.00000000
      2.52000000	     92.77034939	     17.01448647	    -93.78572943	      0.35300483	      0.29194225	      1.01653609	     -2.83886720	    -10.58768693	     -1.94813823	    -31.45394430	    -42.61864193	     -1.74545602	    -25.17324631	    -12.12701218	    -16.64080064	    -10.84098970	    -60.53661727	    -23.16278997	     -0.14557499	     73.45799169	      0.00000000	      0.00000000	      0.00000000
      2.53000000	     92.79462274	     17.03208563	    -93.78639934	      0.35301435	      0.29197353	      1.01655119	     -2.89048362	    -10.55826188	     -2.02102989	    -31.66667444	    -42.75083648	     -1.74545602	    -25.17324631	    -12.10900834	    -16.61022682	    -10.86745021	    -60.50988171	    -23.15482404	     -0.14557499	     73.45799169	      0.00000000	      0.00000000	      0.00000000
